<?xml version="1.0" standalone="no"?>
<!DOCTYPE svg PUBLIC "-//W3C//DTD SVG 20010904//EN"
 "http://www.w3.org/TR/2001/REC-SVG-20010904/DTD/svg10.dtd">
<svg version="1.0" xmlns="http://www.w3.org/2000/svg"
 width="171.000000pt" height="256.000000pt" viewBox="0 0 171.000000 256.000000"
 preserveAspectRatio="xMidYMid meet">

<g transform="translate(0.000000,256.000000) scale(0.100000,-0.100000)"
fill="#000000" stroke="none">
<path d="M750 1904 c-259 -50 -455 -235 -520 -490 -24 -94 -26 -241 -5 -334
59 -249 273 -453 518 -491 98 -15 243 -6 318 20 68 23 189 91 189 106 0 5 14
23 30 39 34 31 34 52 2 49 -11 -2 -23 4 -25 12 -3 10 -4 9 -3 -2 1 -12 9 -17
25 -15 14 1 21 -2 19 -10 -3 -7 -16 -14 -31 -16 -19 -2 -24 -7 -20 -19 4 -11
2 -14 -8 -11 -8 3 -14 18 -14 36 0 16 -3 33 -7 37 -4 4 3 16 15 26 33 27 11
23 -27 -6 -46 -35 -181 -108 -165 -89 7 8 30 24 50 35 50 25 149 124 163 163
5 15 3 17 -11 11 -10 -5 -33 -10 -52 -13 -28 -4 -33 -2 -28 12 9 23 0 20 -14
-5 -8 -15 -8 -19 0 -15 6 4 11 3 11 -3 0 -5 12 -11 28 -13 l27 -4 -27 -13
c-37 -19 -99 -7 -92 17 5 14 4 15 -5 2 -8 -11 -7 -18 6 -27 9 -7 23 -13 30
-13 7 0 13 -4 13 -10 0 -11 -61 -12 -98 -1 l-23 6 25 35 c13 19 40 63 59 98
l35 63 -45 -41 c-69 -65 -123 -85 -223 -85 -67 0 -96 5 -136 23 -64 29 -126
92 -156 157 -30 66 -31 194 -2 276 17 49 18 57 5 69 -12 12 -10 15 15 24 42
15 122 73 135 97 10 19 9 20 -11 9 -12 -7 -41 -18 -64 -25 -22 -7 -33 -13 -23
-14 10 -1 15 -5 12 -11 -9 -15 -53 -12 -62 3 -7 12 -38 20 -118 30 -15 1 -31
-17 -69 -80 -27 -46 -51 -81 -54 -79 -7 8 72 147 98 171 73 68 120 105 170
134 60 35 32 32 -40 -4 -25 -13 -52 -34 -59 -48 -14 -27 -35 -26 -59 2 -8 9
-10 10 -7 3 5 -9 -12 -34 -47 -70 -30 -32 -65 -72 -78 -90 -12 -18 -25 -31
-28 -28 -13 14 133 194 170 208 10 4 18 11 18 16 0 19 206 113 280 128 139 29
311 -5 439 -86 35 -23 70 -39 77 -36 8 3 11 0 7 -10 -3 -9 15 -36 49 -72 106
-112 187 -299 189 -440 1 -68 2 -72 10 -37 22 107 -2 240 -68 375 -79 163
-224 284 -407 342 -60 19 -250 33 -306 22z m-234 -385 c3 -6 17 -8 30 -5 30 8
32 -16 4 -44 -11 -11 -15 -20 -10 -20 23 0 7 -22 -26 -36 -48 -20 -60 -14 -35
18 24 31 28 46 6 28 -13 -11 -15 -8 -15 17 0 41 29 68 46 42z m-67 -141 c1
-24 6 -27 46 -34 25 -3 45 -8 45 -11 0 -12 -32 -63 -39 -63 -5 0 -11 14 -14
30 -6 30 -7 30 -72 30 -42 0 -64 4 -60 10 3 6 17 10 30 10 24 0 35 17 35 54 0
55 28 30 29 -26z m-79 -83 c0 -14 -4 -25 -10 -25 -11 0 -14 33 -3 43 11 11 13
8 13 -18z m36 -11 c-5 -13 -10 -14 -18 -6 -6 6 -8 18 -4 28 5 13 10 14 18 6 6
-6 8 -18 4 -28z m34 11 c0 -14 -4 -25 -10 -25 -5 0 -10 11 -10 25 0 14 5 25
10 25 6 0 10 -11 10 -25z m30 0 c0 -14 -4 -25 -10 -25 -5 0 -10 11 -10 25 0
14 5 25 10 25 6 0 10 -11 10 -25z m20 -70 l14 26 12 -48 c7 -26 16 -73 19
-103 6 -44 5 -53 -5 -43 -7 6 -12 23 -12 37 0 14 -6 24 -12 23 -6 -1 -11 13
-11 34 0 32 -2 35 -18 25 -15 -9 -22 -7 -38 13 -10 13 -19 33 -19 44 0 20 2
19 28 -6 l28 -27 14 25z m-16 -68 c3 3 6 -6 6 -20 0 -31 -6 -33 -32 -10 -25
22 -25 47 1 34 10 -6 21 -7 25 -4z m-117 -34 c-3 -10 -5 -4 -5 12 0 17 2 24 5
18 2 -7 2 -21 0 -30z m153 -60 c0 -19 -17 -16 -40 7 -30 30 -24 44 10 23 17
-9 30 -23 30 -30z m-143 15 c-3 -8 -6 -5 -6 6 -1 11 2 17 5 13 3 -3 4 -12 1
-19z m22 -63 c0 -5 -4 -3 -9 5 -5 8 -9 22 -9 30 0 16 17 -16 18 -35z m190 -19
l-1 -31 -13 30 c-20 42 -20 61 0 45 8 -7 15 -27 14 -44z m-56 20 c9 -7 17 -16
17 -20 0 -13 -29 -5 -51 14 -23 18 -23 19 -4 19 11 0 28 -6 38 -13z m-109 -53
c9 -18 14 -33 12 -33 -6 0 -36 55 -36 66 0 11 5 3 24 -33z m141 5 c25 -11 34
-28 15 -28 -16 0 -60 23 -60 32 0 11 14 10 45 -4z m81 -35 c-4 -4 -14 1 -22
11 -22 31 -17 43 8 19 12 -13 18 -26 14 -30z m-16 -29 c12 -12 12 -14 -2 -14
-29 0 -69 20 -63 30 8 13 44 4 65 -16z m81 -6 c9 -17 8 -18 -9 -9 -11 6 -22
17 -25 25 -9 22 21 8 34 -16z m-210 -5 l24 -28 -30 25 c-16 14 -32 26 -34 28
-2 1 0 2 6 2 5 0 20 -12 34 -27z m284 -33 c12 -19 -12 -10 -31 11 -19 22 -19
22 3 10 12 -6 25 -16 28 -21z m231 14 c-3 -8 -2 -12 4 -9 6 3 10 2 10 -4 0 -5
14 -12 30 -16 45 -10 36 -25 -15 -25 -43 0 -59 12 -32 24 6 3 -3 4 -21 3 -39
-4 -52 11 -27 30 26 19 59 17 51 -3z m-332 -3 c4 -5 1 -11 -6 -13 -18 -6 -58
3 -58 13 0 12 57 12 64 0z m-178 -28 c-7 -7 -26 7 -26 19 0 6 6 6 15 -2 9 -7
13 -15 11 -17z m424 17 c0 -5 -8 -13 -17 -19 -14 -7 -9 -11 28 -21 93 -26 98
-28 56 -29 -38 -1 -117 32 -117 49 0 9 28 29 43 30 4 0 7 -4 7 -10z m-87 -17
c-7 -2 -19 -2 -25 0 -7 3 -2 5 12 5 14 0 19 -2 13 -5z m-83 -13 c0 -5 -18 -10
-41 -10 -24 0 -38 4 -34 10 3 6 22 10 41 10 19 0 34 -4 34 -10z m70 -15 c-13
-15 -77 -31 -87 -22 -4 4 66 31 96 36 2 1 -2 -6 -9 -14z m386 -72 c-3 -8 -10
-11 -16 -8 -5 3 -10 -1 -10 -9 0 -19 -50 -55 -87 -62 -15 -2 -48 2 -73 10
l-45 15 60 -5 c60 -6 115 7 115 25 0 6 -12 16 -26 24 l-25 13 53 36 53 35 3
-29 c2 -17 1 -37 -2 -45z m-312 25 c-4 -13 -9 -28 -11 -35 -4 -11 8 -16 62
-26 11 -2 19 -8 18 -14 -2 -7 14 -17 35 -24 50 -16 55 -20 44 -31 -5 -5 -36 1
-79 17 -88 31 -132 31 -208 1 -32 -14 -63 -22 -67 -20 -17 11 -6 22 30 31 22
5 37 15 37 23 0 11 14 16 53 18 56 3 60 6 37 28 -8 9 -15 24 -15 35 0 15 7 19
36 19 32 0 35 -2 28 -22z"/>
<path d="M853 1793 c9 -2 23 -2 30 0 6 3 -1 5 -18 5 -16 0 -22 -2 -12 -5z"/>
<path d="M968 1783 c7 -3 16 -2 19 1 4 3 -2 6 -13 5 -11 0 -14 -3 -6 -6z"/>
<path d="M939 1694 c-12 -15 -2 -22 36 -25 73 -7 87 13 20 28 -35 8 -47 7 -56
-3z"/>
<path d="M720 1693 c-8 -2 -24 -8 -35 -13 -11 -5 -38 -17 -60 -26 -22 -9 -35
-18 -28 -21 6 -2 30 5 52 16 22 12 53 21 69 21 16 0 35 7 42 15 10 12 9 15 -6
14 -11 0 -26 -3 -34 -6z"/>
<path d="M1280 1643 c41 -34 126 -155 140 -199 6 -19 16 -34 21 -34 6 0 -6 31
-26 69 -36 68 -137 191 -157 191 -5 0 5 -12 22 -27z"/>
<path d="M1118 1630 c9 -10 18 -13 20 -9 6 14 -2 23 -20 24 -17 2 -17 1 0 -15z"/>
<path d="M957 1605 c-4 -10 9 -22 45 -40 27 -14 62 -34 75 -45 27 -21 73 -27
73 -10 0 6 11 10 23 10 25 0 49 -22 61 -54 3 -10 9 -16 12 -13 3 3 -2 19 -10
36 -21 39 -20 51 2 51 18 0 42 18 42 32 0 12 -104 -4 -119 -19 -16 -17 -67
-13 -63 5 1 6 -6 12 -15 12 -10 0 -38 11 -62 25 -50 29 -57 30 -64 10z"/>
<path d="M1154 1469 c-3 -6 3 -21 15 -33 12 -12 21 -30 21 -39 0 -19 21 -32
65 -40 26 -5 31 -2 32 15 1 11 -1 18 -4 15 -10 -11 -64 23 -74 47 -13 29 -46
50 -55 35z"/>
<path d="M690 1363 c0 -5 51 -7 112 -5 180 4 195 9 36 10 -82 1 -148 -1 -148
-5z"/>
<path d="M701 1324 c0 -11 3 -14 6 -6 3 7 2 16 -1 19 -3 4 -6 -2 -5 -13z"/>
<path d="M1190 1269 c0 -39 5 -61 16 -69 13 -11 16 -10 20 7 7 25 54 27 55 3
0 -10 5 -8 16 8 18 26 33 29 33 6 0 -26 54 -14 58 14 3 21 1 22 -77 22 -81 0
-81 0 -101 33 l-20 32 0 -56z"/>
<path d="M788 1213 c-14 -4 -18 -15 -18 -59 0 -65 17 -72 22 -9 2 25 -1 45 -6
45 -6 0 -1 7 10 15 20 15 20 15 -8 8z"/>
<path d="M920 1216 c0 -2 7 -7 16 -10 8 -3 12 -2 9 4 -6 10 -25 14 -25 6z"/>
<path d="M1212 1155 c0 -16 2 -22 5 -12 2 9 2 23 0 30 -3 6 -5 -1 -5 -18z"/>
<path d="M1250 1173 c0 -4 5 -15 10 -23 8 -13 10 -13 10 2 0 9 -4 20 -10 23
-5 3 -10 3 -10 -2z"/>
<path d="M1281 1154 c0 -11 3 -14 6 -6 3 7 2 16 -1 19 -3 4 -6 -2 -5 -13z"/>
<path d="M1180 1075 c0 -8 4 -15 10 -15 5 0 7 7 4 15 -4 8 -8 15 -10 15 -2 0
-4 -7 -4 -15z"/>
<path d="M1277 1049 c-9 -5 -21 -8 -26 -5 -5 3 -11 0 -14 -7 -4 -10 3 -12 23
-9 16 2 31 10 34 18 6 16 6 16 -17 3z"/>
<path d="M1200 1024 c0 -8 5 -12 10 -9 6 3 10 10 10 16 0 5 -4 9 -10 9 -5 0
-10 -7 -10 -16z"/>
<path d="M1429 804 c-84 -113 -255 -224 -404 -260 -91 -23 -259 -23 -340 -1
-82 22 -81 14 2 -14 56 -19 92 -24 208 -25 201 -4 287 25 410 137 55 51 130
142 154 187 18 35 8 26 -30 -24z"/>
</g>
</svg>
